<svg width="254" height="127" viewBox="0 0 254 127" fill="none" xmlns="http://www.w3.org/2000/svg">
<path fill-rule="evenodd" clip-rule="evenodd" d="M189.169 89.1573V105.137C187.279 108.212 183.029 110.888 178.441 110.888C171.221 110.888 167.038 104.936 167.038 97.1135C167.038 89.291 171.221 83.274 178.441 83.274C183.029 83.274 187.279 86.0146 189.169 89.1573ZM189.169 108.079V113.227H192.745V68.6322H189.169V86.1483C186.537 82.4707 182.488 80.1313 177.834 80.1313C169.198 80.1313 163.261 86.8842 163.261 97.1135C163.261 107.477 169.198 114.03 177.834 114.03C182.692 114.03 186.875 111.423 189.169 108.079ZM5.39713 84.0085V107.009C5.39713 111.422 7.48802 114.03 11.8057 114.03C14.5053 114.03 16.0575 113.227 17.3388 112.023L15.9895 109.349C15.2469 110.151 13.8986 110.887 12.3464 110.887C10.0517 110.887 8.97224 109.082 8.97224 106.474V84.0085H15.5847V80.9342H8.97224V72.1083H5.39713V80.9342H0V84.0085H5.39713ZM35.6889 83.274C43.3809 83.274 47.6306 89.8922 47.6306 97.0472C47.6306 104.268 43.3809 110.888 35.6889 110.888C28.132 110.888 23.8143 104.268 23.8143 97.0472C23.8143 89.8922 28.132 83.274 35.6889 83.274ZM35.6889 80.1313C26.175 80.1313 20.0363 87.6191 20.0363 97.0472C20.0363 106.474 26.175 114.029 35.6889 114.029C45.3368 114.029 51.4086 106.474 51.4086 97.0472C51.4086 87.6191 45.3368 80.1313 35.6889 80.1313ZM84.7359 97.0472C84.7359 89.2246 80.6211 83.274 73.334 83.274C68.8124 83.274 64.4947 85.9482 62.6057 89.0236V105.003C64.4947 108.079 68.8124 110.888 73.334 110.888C80.6211 110.888 84.7359 104.869 84.7359 97.0472ZM62.6057 108.011V125.529H59.0975V80.9336H62.6057V86.0146C64.9004 82.7392 69.0832 80.1313 73.9406 80.1313C82.644 80.1313 88.5139 86.6831 88.5139 97.0472C88.5139 107.344 82.644 114.029 73.9406 114.029C69.3531 114.029 65.2373 111.689 62.6057 108.011ZM109.965 80.1313C100.385 80.1313 94.1108 87.6191 94.1108 97.0472C94.1108 106.474 100.385 114.029 109.965 114.029C115.633 114.029 118.872 111.823 121.503 108.48L119.075 106.341C116.713 109.55 113.744 110.888 110.167 110.888C102.544 110.888 97.8888 104.802 97.8888 97.0472C97.8888 89.291 102.544 83.274 110.167 83.274C113.744 83.274 116.713 84.5438 119.075 87.7528L121.503 85.6134C118.872 82.337 115.633 80.1313 109.965 80.1313ZM153.683 97.0472C153.683 89.8922 149.432 83.274 141.741 83.274C134.184 83.274 129.866 89.8922 129.866 97.0472C129.866 104.268 134.184 110.888 141.741 110.888C149.432 110.888 153.683 104.268 153.683 97.0472ZM126.088 97.0472C126.088 87.6191 132.227 80.1313 141.741 80.1313C151.389 80.1313 157.461 87.6191 157.461 97.0472C157.461 106.474 151.389 114.029 141.741 114.029C132.227 114.029 126.088 106.474 126.088 97.0472ZM216.086 83.1403C208.395 83.1403 204.549 89.8258 204.279 95.4426H227.961C227.893 89.9595 224.25 83.1403 216.086 83.1403ZM200.433 97.0472C200.433 87.6864 207.112 80.1313 216.153 80.1313C226.071 80.1313 231.537 87.9539 231.537 97.2472V98.1832H204.279C204.615 105.204 209.34 111.02 217.031 111.02C221.145 111.02 224.924 109.483 227.691 106.542L229.513 108.815C226.274 112.157 222.158 114.029 216.761 114.029C207.247 114.029 200.433 107.009 200.433 97.0472ZM239.224 80.9346V113.227H242.732V89.6921C244.218 86.8842 248.67 83.9426 251.976 83.9426C252.651 83.9426 253.123 83.9426 253.73 84.0763V80.265C249.209 80.265 245.499 82.8729 242.732 86.4831V80.9346H239.224Z" fill="white"/>
<path fill-rule="evenodd" clip-rule="evenodd" d="M166.357 17.3679C156.038 6.5946 142.175 0 126.933 0C111.69 0 97.8275 6.5946 87.5077 17.3679C93.6606 18.4543 99.929 19.8938 106.206 21.6208C111.569 23.0963 116.615 24.7018 120.845 26.2248C122.534 26.8332 126.767 28.609 126.933 28.6897C127.098 28.609 131.331 26.8332 133.021 26.2248C137.25 24.7018 142.296 23.0963 147.659 21.6208C153.936 19.8938 160.205 18.4543 166.357 17.3679ZM70.3678 37.1088C68.1163 42.7955 66.5791 48.7986 65.8016 54.9863C53.11 53.6584 44.3047 34.6588 44.3047 30.118C44.3047 22.5885 53.5457 18.8238 63.2195 18.8238C68.8086 18.8238 74.5059 19.284 80.0677 20.0325C76.1382 25.0964 72.8525 30.8333 70.3678 37.1088ZM124.942 32.0004C122.951 32.0004 106.187 36.7547 94.5783 42.8241C91.9898 44.1774 89.4567 45.6171 86.9956 47.0159C80.7132 50.5864 74.9005 53.89 69.8369 54.808C70.6099 49.0652 72.0614 43.5704 74.0972 38.4286C76.693 31.8721 80.2391 25.8896 84.5403 20.6987C106.338 24.2515 124.942 31.6436 124.942 32.0004ZM182.917 35.6877C185.485 41.7893 187.221 48.2784 188.064 54.9863C200.755 53.6584 209.56 34.6588 209.56 30.118C209.56 22.5885 200.319 18.8238 190.646 18.8238C185.056 18.8238 179.359 19.284 173.797 20.0325C177.426 24.7097 180.507 29.9628 182.917 35.6877ZM159.287 42.8241C147.678 36.7547 130.915 32.0004 128.924 32.0004C128.924 31.6436 147.527 24.2515 169.325 20.6987C173.329 25.5315 176.679 31.0504 179.217 37.0798C181.543 42.6055 183.187 48.56 184.028 54.808C178.965 53.89 173.152 50.5864 166.87 47.0159L166.869 47.0158C164.408 45.6171 161.875 44.1774 159.287 42.8241Z" fill="white"/>
</svg>
