<svg width="24" height="25" viewBox="0 0 24 25" fill="none" xmlns="http://www.w3.org/2000/svg">
<rect x="1.5" y="2.2002" width="21" height="21" rx="10.5" fill="#2275A6"/>
<path d="M9.46392 7.96931C9.46392 8.67022 8.85639 9.23842 8.10696 9.23842C7.35753 9.23842 6.75 8.67022 6.75 7.96931C6.75 7.2684 7.35753 6.7002 8.10696 6.7002C8.85639 6.7002 9.46392 7.2684 9.46392 7.96931Z" fill="#E1E1E1"/>
<path d="M6.93557 10.1713H9.25515V17.2002H6.93557V10.1713Z" fill="#E1E1E1"/>
<path d="M12.9897 10.1713H10.6701V17.2002H12.9897C12.9897 17.2002 12.9897 14.9874 12.9897 13.6038C12.9897 12.7734 13.2732 11.9393 14.4046 11.9393C15.6833 11.9393 15.6756 13.0261 15.6696 13.868C15.6618 14.9685 15.6804 16.0916 15.6804 17.2002H18V13.4905C17.9804 11.1217 17.3631 10.0303 15.3325 10.0303C14.1265 10.0303 13.379 10.5777 12.9897 11.0731V10.1713Z" fill="#E1E1E1"/>
</svg>
