<svg width="24" height="25" viewBox="0 0 24 25" fill="none" xmlns="http://www.w3.org/2000/svg">
<rect x="1.5" y="2.2002" width="21" height="21" rx="6" fill="url(#paint0_radial_660_1401)"/>
<rect x="1.5" y="2.2002" width="21" height="21" rx="6" fill="url(#paint1_radial_660_1401)"/>
<path d="M17.25 8.5752C17.25 9.19652 16.7463 9.7002 16.125 9.7002C15.5037 9.7002 15 9.19652 15 8.5752C15 7.95388 15.5037 7.4502 16.125 7.4502C16.7463 7.4502 17.25 7.95388 17.25 8.5752Z" fill="#E1E1E1"/>
<path fill-rule="evenodd" clip-rule="evenodd" d="M12 16.4502C14.0711 16.4502 15.75 14.7713 15.75 12.7002C15.75 10.6291 14.0711 8.9502 12 8.9502C9.92893 8.9502 8.25 10.6291 8.25 12.7002C8.25 14.7713 9.92893 16.4502 12 16.4502ZM12 14.9502C13.2426 14.9502 14.25 13.9428 14.25 12.7002C14.25 11.4576 13.2426 10.4502 12 10.4502C10.7574 10.4502 9.75 11.4576 9.75 12.7002C9.75 13.9428 10.7574 14.9502 12 14.9502Z" fill="#E1E1E1"/>
<path fill-rule="evenodd" clip-rule="evenodd" d="M4.5 12.4002C4.5 9.87996 4.5 8.61984 4.99047 7.65724C5.4219 6.81051 6.11031 6.1221 6.95704 5.69067C7.91965 5.2002 9.17976 5.2002 11.7 5.2002H12.3C14.8202 5.2002 16.0804 5.2002 17.043 5.69067C17.8897 6.1221 18.5781 6.81051 19.0095 7.65724C19.5 8.61984 19.5 9.87996 19.5 12.4002V13.0002C19.5 15.5204 19.5 16.7805 19.0095 17.7432C18.5781 18.5899 17.8897 19.2783 17.043 19.7097C16.0804 20.2002 14.8202 20.2002 12.3 20.2002H11.7C9.17976 20.2002 7.91965 20.2002 6.95704 19.7097C6.11031 19.2783 5.4219 18.5899 4.99047 17.7432C4.5 16.7805 4.5 15.5204 4.5 13.0002V12.4002ZM11.7 6.7002H12.3C13.5849 6.7002 14.4583 6.70136 15.1334 6.75652C15.7911 6.81025 16.1274 6.90764 16.362 7.02718C16.9265 7.3148 17.3854 7.77374 17.673 8.33822C17.7926 8.57282 17.8899 8.90913 17.9437 9.56675C17.9988 10.2419 18 11.1153 18 12.4002V13.0002C18 14.2851 17.9988 15.1585 17.9437 15.8336C17.8899 16.4913 17.7926 16.8276 17.673 17.0622C17.3854 17.6267 16.9265 18.0856 16.362 18.3732C16.1274 18.4927 15.7911 18.5901 15.1334 18.6439C14.4583 18.699 13.5849 18.7002 12.3 18.7002H11.7C10.4151 18.7002 9.54169 18.699 8.86656 18.6439C8.20893 18.5901 7.87263 18.4927 7.63803 18.3732C7.07354 18.0856 6.6146 17.6267 6.32698 17.0622C6.20745 16.8276 6.11006 16.4913 6.05633 15.8336C6.00117 15.1585 6 14.2851 6 13.0002V12.4002C6 11.1153 6.00117 10.2419 6.05633 9.56675C6.11006 8.90913 6.20745 8.57282 6.32698 8.33822C6.6146 7.77374 7.07354 7.3148 7.63803 7.02718C7.87263 6.90764 8.20893 6.81025 8.86656 6.75652C9.54169 6.70136 10.4151 6.7002 11.7 6.7002Z" fill="#E1E1E1"/>
<defs>
<radialGradient id="paint0_radial_660_1401" cx="0" cy="0" r="1" gradientUnits="userSpaceOnUse" gradientTransform="translate(9 17.9502) rotate(-55.3758) scale(19.1397)">
<stop stop-color="#B13589"/>
<stop offset="0.79309" stop-color="#C62F94"/>
<stop offset="1" stop-color="#8A3AC8"/>
</radialGradient>
<radialGradient id="paint1_radial_660_1401" cx="0" cy="0" r="1" gradientUnits="userSpaceOnUse" gradientTransform="translate(8.25 23.9502) rotate(-65.1363) scale(16.9457)">
<stop stop-color="#E0E8B7"/>
<stop offset="0.444662" stop-color="#FB8A2E"/>
<stop offset="0.71474" stop-color="#E2425C"/>
<stop offset="1" stop-color="#E2425C" stop-opacity="0"/>
</radialGradient>
</defs>
</svg>
