<svg width="24" height="25" viewBox="0 0 24 25" fill="none" xmlns="http://www.w3.org/2000/svg">
<path d="M8.64991 19.7002C6.57026 19.7002 4.63168 19.0866 3 18.0278C4.38535 18.1187 6.83019 17.9009 8.35087 16.4294C6.06326 16.3229 5.0316 14.543 4.89703 13.7823C5.0914 13.8584 6.01841 13.9497 6.54172 13.7367C3.91022 13.0673 3.50652 10.7245 3.59624 10.0095C4.08964 10.3594 4.92694 10.4811 5.25587 10.4507C2.8038 8.67078 3.68595 5.9933 4.11954 5.41521C5.87924 7.88845 8.51649 9.27752 11.7791 9.35479C11.7176 9.08108 11.6851 8.79612 11.6851 8.50344C11.6851 6.40297 13.3586 4.7002 15.423 4.7002C16.5016 4.7002 17.4735 5.16503 18.1558 5.90857C18.8766 5.73722 19.9613 5.33611 20.4916 4.98924C20.2243 5.96287 19.3922 6.77508 18.8888 7.07611C18.893 7.08636 18.8847 7.06583 18.8888 7.07611C19.331 7.00826 20.5274 6.775 21 6.44969C20.7663 6.99666 19.884 7.90611 19.16 8.41525C19.2947 14.4424 14.7492 19.7002 8.64991 19.7002Z" fill="#0D99FF"/>
</svg>
